<?xml version="1.0" standalone="no"?>
<!DOCTYPE svg PUBLIC "-//W3C//DTD SVG 20010904//EN"
 "http://www.w3.org/TR/2001/REC-SVG-20010904/DTD/svg10.dtd">
<svg version="1.0" xmlns="http://www.w3.org/2000/svg"
 width="512.000000pt" height="512.000000pt" viewBox="0 0 512.000000 512.000000"
 preserveAspectRatio="xMidYMid meet">
<metadata>
Created by potrace 1.14, written by Peter Selinger 2001-2017
</metadata>
<g transform="translate(0.000000,512.000000) scale(0.100000,-0.100000)"
fill="#000000" stroke="none">
<path d="M820 4246 l0 -873 -62 -33 c-35 -19 -88 -47 -118 -63 -30 -16 -106
-56 -169 -89 -126 -66 -254 -133 -381 -201 l-85 -46 -2 -1470 -2 -1471 2559 0
2560 0 0 1474 c0 1395 -1 1474 -18 1479 -9 3 -62 30 -117 59 -55 30 -167 89
-250 132 -82 43 -154 82 -160 86 -5 4 -70 38 -142 75 l-133 68 0 874 0 873
-1740 0 -1740 0 0 -874z"/>
</g>
</svg>
